<mxfile host="app.diagrams.net" modified="2023-02-14T13:52:13.785Z" agent="5.0 (Windows NT 10.0; Win64; x64) AppleWebKit/537.36 (KHTML, like Gecko) Chrome/86.0.4240.198 Safari/537.36" etag="fUc6MBuJYMTy4UjdP2OJ" version="20.8.20" type="github">
  <diagram name="PÃ¡gina-1" id="6980AKdjeQCheHW8_v9r">
    <mxGraphModel dx="1134" dy="1046" grid="1" gridSize="10" guides="1" tooltips="1" connect="1" arrows="1" fold="1" page="1" pageScale="1" pageWidth="827" pageHeight="1169" math="0" shadow="0">
      <root>
        <mxCell id="0" />
        <mxCell id="1" parent="0" />
        <mxCell id="mYhpT6WNRmOxAPuIhqAg-1" value="&lt;font style=&quot;vertical-align: inherit;&quot;&gt;&lt;font style=&quot;vertical-align: inherit;&quot;&gt;SOLICITACAO_OS&lt;/font&gt;&lt;/font&gt;" style="rounded=0;whiteSpace=wrap;html=1;" vertex="1" parent="1">
          <mxGeometry x="119" y="420" width="140" height="60" as="geometry" />
        </mxCell>
        <mxCell id="mYhpT6WNRmOxAPuIhqAg-3" value="TIPO_OS" style="rounded=0;whiteSpace=wrap;html=1;" vertex="1" parent="1">
          <mxGeometry x="459" y="420" width="120" height="60" as="geometry" />
        </mxCell>
        <mxCell id="mYhpT6WNRmOxAPuIhqAg-4" value="MANU_SERV" style="rounded=0;whiteSpace=wrap;html=1;" vertex="1" parent="1">
          <mxGeometry x="590" y="730" width="120" height="60" as="geometry" />
        </mxCell>
        <mxCell id="mYhpT6WNRmOxAPuIhqAg-5" value="&lt;u&gt;CD_OS&lt;/u&gt;" style="ellipse;whiteSpace=wrap;html=1;" vertex="1" parent="1">
          <mxGeometry x="9" y="440" width="70" height="50" as="geometry" />
        </mxCell>
        <mxCell id="mYhpT6WNRmOxAPuIhqAg-6" value="" style="endArrow=none;html=1;rounded=0;exitX=0;exitY=1;exitDx=0;exitDy=0;" edge="1" parent="1" source="mYhpT6WNRmOxAPuIhqAg-1" target="mYhpT6WNRmOxAPuIhqAg-5">
          <mxGeometry width="50" height="50" relative="1" as="geometry">
            <mxPoint x="379" y="500" as="sourcePoint" />
            <mxPoint x="429" y="450" as="targetPoint" />
          </mxGeometry>
        </mxCell>
        <mxCell id="mYhpT6WNRmOxAPuIhqAg-7" value="dt_pedido" style="ellipse;whiteSpace=wrap;html=1;" vertex="1" parent="1">
          <mxGeometry x="9" y="380" width="70" height="50" as="geometry" />
        </mxCell>
        <mxCell id="mYhpT6WNRmOxAPuIhqAg-8" value="cd_usuario" style="ellipse;whiteSpace=wrap;html=1;direction=south;" vertex="1" parent="1">
          <mxGeometry x="9" y="320" width="70" height="50" as="geometry" />
        </mxCell>
        <mxCell id="mYhpT6WNRmOxAPuIhqAg-9" value="nm_solicitante" style="ellipse;whiteSpace=wrap;html=1;" vertex="1" parent="1">
          <mxGeometry x="9" y="250" width="100" height="50" as="geometry" />
        </mxCell>
        <mxCell id="mYhpT6WNRmOxAPuIhqAg-10" value="" style="endArrow=none;html=1;rounded=0;entryX=1;entryY=1;entryDx=0;entryDy=0;exitX=0;exitY=0.5;exitDx=0;exitDy=0;" edge="1" parent="1" source="mYhpT6WNRmOxAPuIhqAg-1" target="mYhpT6WNRmOxAPuIhqAg-7">
          <mxGeometry width="50" height="50" relative="1" as="geometry">
            <mxPoint x="139" y="640" as="sourcePoint" />
            <mxPoint x="189" y="590" as="targetPoint" />
          </mxGeometry>
        </mxCell>
        <mxCell id="mYhpT6WNRmOxAPuIhqAg-11" value="" style="endArrow=none;html=1;rounded=0;entryX=1;entryY=0;entryDx=0;entryDy=0;exitX=0;exitY=0.25;exitDx=0;exitDy=0;" edge="1" parent="1" source="mYhpT6WNRmOxAPuIhqAg-1" target="mYhpT6WNRmOxAPuIhqAg-8">
          <mxGeometry width="50" height="50" relative="1" as="geometry">
            <mxPoint x="139" y="640" as="sourcePoint" />
            <mxPoint x="189" y="590" as="targetPoint" />
          </mxGeometry>
        </mxCell>
        <mxCell id="mYhpT6WNRmOxAPuIhqAg-12" value="" style="endArrow=none;html=1;rounded=0;entryX=0.727;entryY=0.937;entryDx=0;entryDy=0;exitX=0.101;exitY=0.019;exitDx=0;exitDy=0;exitPerimeter=0;entryPerimeter=0;" edge="1" parent="1" source="mYhpT6WNRmOxAPuIhqAg-1" target="mYhpT6WNRmOxAPuIhqAg-9">
          <mxGeometry width="50" height="50" relative="1" as="geometry">
            <mxPoint x="169" y="420" as="sourcePoint" />
            <mxPoint x="189" y="590" as="targetPoint" />
          </mxGeometry>
        </mxCell>
        <mxCell id="mYhpT6WNRmOxAPuIhqAg-13" value="&lt;u&gt;cd_tipo_os&lt;/u&gt;" style="ellipse;whiteSpace=wrap;html=1;" vertex="1" parent="1">
          <mxGeometry x="9" y="175" width="100" height="50" as="geometry" />
        </mxCell>
        <mxCell id="mYhpT6WNRmOxAPuIhqAg-14" value="" style="endArrow=none;html=1;rounded=0;entryX=1;entryY=1;entryDx=0;entryDy=0;" edge="1" parent="1" source="mYhpT6WNRmOxAPuIhqAg-1" target="mYhpT6WNRmOxAPuIhqAg-13">
          <mxGeometry width="50" height="50" relative="1" as="geometry">
            <mxPoint x="139" y="640" as="sourcePoint" />
            <mxPoint x="189" y="590" as="targetPoint" />
          </mxGeometry>
        </mxCell>
        <mxCell id="mYhpT6WNRmOxAPuIhqAg-15" value="dt_execucao" style="ellipse;whiteSpace=wrap;html=1;" vertex="1" parent="1">
          <mxGeometry x="280" y="360" width="80" height="50" as="geometry" />
        </mxCell>
        <mxCell id="mYhpT6WNRmOxAPuIhqAg-16" value="" style="endArrow=none;html=1;rounded=0;entryX=0;entryY=1;entryDx=0;entryDy=0;exitX=1;exitY=0;exitDx=0;exitDy=0;" edge="1" parent="1" source="mYhpT6WNRmOxAPuIhqAg-1" target="mYhpT6WNRmOxAPuIhqAg-15">
          <mxGeometry width="50" height="50" relative="1" as="geometry">
            <mxPoint x="139" y="640" as="sourcePoint" />
            <mxPoint x="189" y="590" as="targetPoint" />
          </mxGeometry>
        </mxCell>
        <mxCell id="mYhpT6WNRmOxAPuIhqAg-18" value="&lt;u&gt;cd_oficina&lt;/u&gt;" style="ellipse;whiteSpace=wrap;html=1;" vertex="1" parent="1">
          <mxGeometry x="9" y="500" width="70" height="50" as="geometry" />
        </mxCell>
        <mxCell id="mYhpT6WNRmOxAPuIhqAg-19" value="" style="endArrow=none;html=1;rounded=0;entryX=0.071;entryY=1;entryDx=0;entryDy=0;entryPerimeter=0;exitX=1;exitY=0.5;exitDx=0;exitDy=0;" edge="1" parent="1" source="mYhpT6WNRmOxAPuIhqAg-18" target="mYhpT6WNRmOxAPuIhqAg-1">
          <mxGeometry width="50" height="50" relative="1" as="geometry">
            <mxPoint x="139" y="640" as="sourcePoint" />
            <mxPoint x="189" y="590" as="targetPoint" />
          </mxGeometry>
        </mxCell>
        <mxCell id="mYhpT6WNRmOxAPuIhqAg-20" value="&lt;u&gt;cd_setor&lt;/u&gt;" style="ellipse;whiteSpace=wrap;html=1;" vertex="1" parent="1">
          <mxGeometry x="9" y="560" width="70" height="50" as="geometry" />
        </mxCell>
        <mxCell id="mYhpT6WNRmOxAPuIhqAg-21" value="" style="endArrow=none;html=1;rounded=0;entryX=0.25;entryY=1;entryDx=0;entryDy=0;exitX=1;exitY=0.4;exitDx=0;exitDy=0;exitPerimeter=0;" edge="1" parent="1" source="mYhpT6WNRmOxAPuIhqAg-20" target="mYhpT6WNRmOxAPuIhqAg-1">
          <mxGeometry width="50" height="50" relative="1" as="geometry">
            <mxPoint x="139" y="640" as="sourcePoint" />
            <mxPoint x="169" y="500" as="targetPoint" />
          </mxGeometry>
        </mxCell>
        <mxCell id="mYhpT6WNRmOxAPuIhqAg-22" value="&lt;u&gt;cd_localidade&lt;/u&gt;" style="ellipse;whiteSpace=wrap;html=1;" vertex="1" parent="1">
          <mxGeometry x="9" y="620" width="91" height="50" as="geometry" />
        </mxCell>
        <mxCell id="mYhpT6WNRmOxAPuIhqAg-23" value="" style="endArrow=none;html=1;rounded=0;entryX=0.411;entryY=0.995;entryDx=0;entryDy=0;entryPerimeter=0;exitX=1;exitY=0.5;exitDx=0;exitDy=0;" edge="1" parent="1" source="mYhpT6WNRmOxAPuIhqAg-22" target="mYhpT6WNRmOxAPuIhqAg-1">
          <mxGeometry width="50" height="50" relative="1" as="geometry">
            <mxPoint x="139" y="640" as="sourcePoint" />
            <mxPoint x="189" y="590" as="targetPoint" />
          </mxGeometry>
        </mxCell>
        <mxCell id="mYhpT6WNRmOxAPuIhqAg-24" value="&lt;u&gt;cd_tipo_os&lt;/u&gt;" style="ellipse;whiteSpace=wrap;html=1;" vertex="1" parent="1">
          <mxGeometry x="380" y="350" width="100" height="50" as="geometry" />
        </mxCell>
        <mxCell id="mYhpT6WNRmOxAPuIhqAg-25" value="" style="endArrow=none;html=1;rounded=0;" edge="1" parent="1" source="mYhpT6WNRmOxAPuIhqAg-3" target="mYhpT6WNRmOxAPuIhqAg-24">
          <mxGeometry width="50" height="50" relative="1" as="geometry">
            <mxPoint x="139" y="640" as="sourcePoint" />
            <mxPoint x="189" y="590" as="targetPoint" />
          </mxGeometry>
        </mxCell>
        <mxCell id="mYhpT6WNRmOxAPuIhqAg-26" value="TEM" style="html=1;whiteSpace=wrap;aspect=fixed;shape=isoRectangle;" vertex="1" parent="1">
          <mxGeometry x="315.67" y="425" width="83.33" height="50" as="geometry" />
        </mxCell>
        <mxCell id="mYhpT6WNRmOxAPuIhqAg-27" value="" style="endArrow=none;html=1;rounded=0;entryX=1;entryY=0.5;entryDx=0;entryDy=0;exitX=0.009;exitY=0.494;exitDx=0;exitDy=0;exitPerimeter=0;" edge="1" parent="1" source="mYhpT6WNRmOxAPuIhqAg-26" target="mYhpT6WNRmOxAPuIhqAg-1">
          <mxGeometry width="50" height="50" relative="1" as="geometry">
            <mxPoint x="329" y="445" as="sourcePoint" />
            <mxPoint x="189" y="590" as="targetPoint" />
          </mxGeometry>
        </mxCell>
        <mxCell id="mYhpT6WNRmOxAPuIhqAg-28" value="" style="endArrow=none;html=1;rounded=0;entryX=1.003;entryY=0.551;entryDx=0;entryDy=0;entryPerimeter=0;exitX=0;exitY=0.5;exitDx=0;exitDy=0;" edge="1" parent="1" source="mYhpT6WNRmOxAPuIhqAg-3" target="mYhpT6WNRmOxAPuIhqAg-26">
          <mxGeometry width="50" height="50" relative="1" as="geometry">
            <mxPoint x="139" y="640" as="sourcePoint" />
            <mxPoint x="189" y="590" as="targetPoint" />
          </mxGeometry>
        </mxCell>
        <mxCell id="mYhpT6WNRmOxAPuIhqAg-29" value="1" style="text;html=1;strokeColor=none;fillColor=none;align=center;verticalAlign=middle;whiteSpace=wrap;rounded=0;" vertex="1" parent="1">
          <mxGeometry x="289" y="420" width="30" height="30" as="geometry" />
        </mxCell>
        <mxCell id="mYhpT6WNRmOxAPuIhqAg-30" value="N" style="text;html=1;strokeColor=none;fillColor=none;align=center;verticalAlign=middle;whiteSpace=wrap;rounded=0;" vertex="1" parent="1">
          <mxGeometry x="398" y="420" width="30" height="30" as="geometry" />
        </mxCell>
        <mxCell id="mYhpT6WNRmOxAPuIhqAg-33" value="ds_tipo_os" style="ellipse;whiteSpace=wrap;html=1;" vertex="1" parent="1">
          <mxGeometry x="530" y="340" width="90" height="50" as="geometry" />
        </mxCell>
        <mxCell id="mYhpT6WNRmOxAPuIhqAg-34" value="" style="endArrow=none;html=1;rounded=0;entryX=0.337;entryY=0.994;entryDx=0;entryDy=0;entryPerimeter=0;" edge="1" parent="1" source="mYhpT6WNRmOxAPuIhqAg-3" target="mYhpT6WNRmOxAPuIhqAg-33">
          <mxGeometry width="50" height="50" relative="1" as="geometry">
            <mxPoint x="139" y="640" as="sourcePoint" />
            <mxPoint x="189" y="590" as="targetPoint" />
          </mxGeometry>
        </mxCell>
        <mxCell id="mYhpT6WNRmOxAPuIhqAg-35" value="FUNCIONARIO" style="rounded=0;whiteSpace=wrap;html=1;" vertex="1" parent="1">
          <mxGeometry x="428" y="595" width="120" height="60" as="geometry" />
        </mxCell>
        <mxCell id="mYhpT6WNRmOxAPuIhqAg-37" value="&lt;u&gt;cd_func&lt;/u&gt;" style="ellipse;whiteSpace=wrap;html=1;" vertex="1" parent="1">
          <mxGeometry x="399" y="500" width="100" height="50" as="geometry" />
        </mxCell>
        <mxCell id="mYhpT6WNRmOxAPuIhqAg-38" value="" style="endArrow=none;html=1;rounded=0;entryX=0.5;entryY=1;entryDx=0;entryDy=0;exitX=0.383;exitY=0.019;exitDx=0;exitDy=0;exitPerimeter=0;" edge="1" parent="1" source="mYhpT6WNRmOxAPuIhqAg-35" target="mYhpT6WNRmOxAPuIhqAg-37">
          <mxGeometry width="50" height="50" relative="1" as="geometry">
            <mxPoint x="329" y="640" as="sourcePoint" />
            <mxPoint x="379" y="590" as="targetPoint" />
          </mxGeometry>
        </mxCell>
        <mxCell id="mYhpT6WNRmOxAPuIhqAg-39" value="nm_func" style="ellipse;whiteSpace=wrap;html=1;" vertex="1" parent="1">
          <mxGeometry x="510" y="500" width="90" height="50" as="geometry" />
        </mxCell>
        <mxCell id="mYhpT6WNRmOxAPuIhqAg-40" value="" style="endArrow=none;html=1;rounded=0;entryX=0.333;entryY=1;entryDx=0;entryDy=0;entryPerimeter=0;exitX=0.75;exitY=0;exitDx=0;exitDy=0;" edge="1" parent="1" source="mYhpT6WNRmOxAPuIhqAg-35" target="mYhpT6WNRmOxAPuIhqAg-39">
          <mxGeometry width="50" height="50" relative="1" as="geometry">
            <mxPoint x="329" y="640" as="sourcePoint" />
            <mxPoint x="379" y="590" as="targetPoint" />
          </mxGeometry>
        </mxCell>
        <mxCell id="mYhpT6WNRmOxAPuIhqAg-41" value="sn_ativo" style="ellipse;whiteSpace=wrap;html=1;" vertex="1" parent="1">
          <mxGeometry x="620" y="500" width="90" height="50" as="geometry" />
        </mxCell>
        <mxCell id="mYhpT6WNRmOxAPuIhqAg-42" value="" style="endArrow=none;html=1;rounded=0;entryX=0.5;entryY=1;entryDx=0;entryDy=0;exitX=1;exitY=0.5;exitDx=0;exitDy=0;" edge="1" parent="1" source="mYhpT6WNRmOxAPuIhqAg-35" target="mYhpT6WNRmOxAPuIhqAg-41">
          <mxGeometry width="50" height="50" relative="1" as="geometry">
            <mxPoint x="329" y="640" as="sourcePoint" />
            <mxPoint x="379" y="590" as="targetPoint" />
          </mxGeometry>
        </mxCell>
        <mxCell id="mYhpT6WNRmOxAPuIhqAg-43" value="SETOR" style="rounded=0;whiteSpace=wrap;html=1;" vertex="1" parent="1">
          <mxGeometry x="199" y="210" width="120" height="60" as="geometry" />
        </mxCell>
        <mxCell id="mYhpT6WNRmOxAPuIhqAg-44" value="LOCALIDADE" style="rounded=0;whiteSpace=wrap;html=1;" vertex="1" parent="1">
          <mxGeometry x="520" y="200" width="120" height="60" as="geometry" />
        </mxCell>
        <mxCell id="mYhpT6WNRmOxAPuIhqAg-45" value="&lt;u&gt;cd_servico&lt;/u&gt;" style="ellipse;whiteSpace=wrap;html=1;" vertex="1" parent="1">
          <mxGeometry x="640" y="620" width="100" height="50" as="geometry" />
        </mxCell>
        <mxCell id="mYhpT6WNRmOxAPuIhqAg-46" value="nm_servico" style="ellipse;whiteSpace=wrap;html=1;" vertex="1" parent="1">
          <mxGeometry x="729" y="680" width="90" height="50" as="geometry" />
        </mxCell>
        <mxCell id="mYhpT6WNRmOxAPuIhqAg-47" value="" style="endArrow=none;html=1;rounded=0;entryX=0.5;entryY=1;entryDx=0;entryDy=0;exitX=0.417;exitY=0;exitDx=0;exitDy=0;exitPerimeter=0;" edge="1" parent="1" source="mYhpT6WNRmOxAPuIhqAg-4" target="mYhpT6WNRmOxAPuIhqAg-45">
          <mxGeometry width="50" height="50" relative="1" as="geometry">
            <mxPoint x="329" y="750" as="sourcePoint" />
            <mxPoint x="379" y="700" as="targetPoint" />
          </mxGeometry>
        </mxCell>
        <mxCell id="mYhpT6WNRmOxAPuIhqAg-48" value="" style="endArrow=none;html=1;rounded=0;entryX=0;entryY=0.5;entryDx=0;entryDy=0;exitX=1;exitY=0;exitDx=0;exitDy=0;" edge="1" parent="1" source="mYhpT6WNRmOxAPuIhqAg-4" target="mYhpT6WNRmOxAPuIhqAg-46">
          <mxGeometry width="50" height="50" relative="1" as="geometry">
            <mxPoint x="329" y="750" as="sourcePoint" />
            <mxPoint x="379" y="700" as="targetPoint" />
          </mxGeometry>
        </mxCell>
        <mxCell id="mYhpT6WNRmOxAPuIhqAg-49" value="&lt;u&gt;cd_setor&lt;/u&gt;" style="ellipse;whiteSpace=wrap;html=1;" vertex="1" parent="1">
          <mxGeometry x="119" y="100" width="100" height="50" as="geometry" />
        </mxCell>
        <mxCell id="mYhpT6WNRmOxAPuIhqAg-50" value="" style="endArrow=none;html=1;rounded=0;entryX=0.599;entryY=1.023;entryDx=0;entryDy=0;entryPerimeter=0;" edge="1" parent="1" target="mYhpT6WNRmOxAPuIhqAg-49">
          <mxGeometry width="50" height="50" relative="1" as="geometry">
            <mxPoint x="200" y="210" as="sourcePoint" />
            <mxPoint x="380" y="550" as="targetPoint" />
          </mxGeometry>
        </mxCell>
        <mxCell id="mYhpT6WNRmOxAPuIhqAg-51" value="&lt;u&gt;cd_localidade&lt;/u&gt;" style="ellipse;whiteSpace=wrap;html=1;" vertex="1" parent="1">
          <mxGeometry x="463.33" y="110" width="100" height="50" as="geometry" />
        </mxCell>
        <mxCell id="mYhpT6WNRmOxAPuIhqAg-52" value="" style="endArrow=none;html=1;rounded=0;" edge="1" parent="1" source="mYhpT6WNRmOxAPuIhqAg-44" target="mYhpT6WNRmOxAPuIhqAg-51">
          <mxGeometry width="50" height="50" relative="1" as="geometry">
            <mxPoint x="330" y="600" as="sourcePoint" />
            <mxPoint x="380" y="550" as="targetPoint" />
          </mxGeometry>
        </mxCell>
        <mxCell id="mYhpT6WNRmOxAPuIhqAg-53" value="nm_setor" style="ellipse;whiteSpace=wrap;html=1;" vertex="1" parent="1">
          <mxGeometry x="270" y="90" width="80" height="50" as="geometry" />
        </mxCell>
        <mxCell id="mYhpT6WNRmOxAPuIhqAg-54" value="" style="endArrow=none;html=1;rounded=0;entryX=0.5;entryY=1;entryDx=0;entryDy=0;" edge="1" parent="1" source="mYhpT6WNRmOxAPuIhqAg-43" target="mYhpT6WNRmOxAPuIhqAg-53">
          <mxGeometry width="50" height="50" relative="1" as="geometry">
            <mxPoint x="330" y="600" as="sourcePoint" />
            <mxPoint x="380" y="550" as="targetPoint" />
          </mxGeometry>
        </mxCell>
        <mxCell id="mYhpT6WNRmOxAPuIhqAg-55" value="Ã DE" style="html=1;whiteSpace=wrap;aspect=fixed;shape=isoRectangle;" vertex="1" parent="1">
          <mxGeometry x="170.00000000000003" y="310" width="83.33" height="50" as="geometry" />
        </mxCell>
        <mxCell id="mYhpT6WNRmOxAPuIhqAg-56" value="Ã DE" style="html=1;whiteSpace=wrap;aspect=fixed;shape=isoRectangle;" vertex="1" parent="1">
          <mxGeometry x="315.67" y="300" width="83.33" height="50" as="geometry" />
        </mxCell>
        <mxCell id="mYhpT6WNRmOxAPuIhqAg-57" value="" style="endArrow=none;html=1;rounded=0;entryX=0.535;entryY=0.966;entryDx=0;entryDy=0;entryPerimeter=0;exitX=0.601;exitY=0.019;exitDx=0;exitDy=0;exitPerimeter=0;" edge="1" parent="1" source="mYhpT6WNRmOxAPuIhqAg-1" target="mYhpT6WNRmOxAPuIhqAg-55">
          <mxGeometry width="50" height="50" relative="1" as="geometry">
            <mxPoint x="330" y="600" as="sourcePoint" />
            <mxPoint x="380" y="550" as="targetPoint" />
          </mxGeometry>
        </mxCell>
        <mxCell id="mYhpT6WNRmOxAPuIhqAg-58" value="" style="endArrow=none;html=1;rounded=0;entryX=0.038;entryY=0.566;entryDx=0;entryDy=0;entryPerimeter=0;exitX=0.75;exitY=0;exitDx=0;exitDy=0;" edge="1" parent="1" source="mYhpT6WNRmOxAPuIhqAg-1" target="mYhpT6WNRmOxAPuIhqAg-56">
          <mxGeometry width="50" height="50" relative="1" as="geometry">
            <mxPoint x="330" y="600" as="sourcePoint" />
            <mxPoint x="380" y="550" as="targetPoint" />
          </mxGeometry>
        </mxCell>
        <mxCell id="mYhpT6WNRmOxAPuIhqAg-59" value="" style="endArrow=none;html=1;rounded=0;entryX=0.5;entryY=1;entryDx=0;entryDy=0;exitX=0.552;exitY=0.08;exitDx=0;exitDy=0;exitPerimeter=0;" edge="1" parent="1" source="mYhpT6WNRmOxAPuIhqAg-55" target="mYhpT6WNRmOxAPuIhqAg-43">
          <mxGeometry width="50" height="50" relative="1" as="geometry">
            <mxPoint x="330" y="600" as="sourcePoint" />
            <mxPoint x="380" y="550" as="targetPoint" />
          </mxGeometry>
        </mxCell>
        <mxCell id="mYhpT6WNRmOxAPuIhqAg-60" value="" style="endArrow=none;html=1;rounded=0;entryX=0.5;entryY=1;entryDx=0;entryDy=0;" edge="1" parent="1" target="mYhpT6WNRmOxAPuIhqAg-44">
          <mxGeometry width="50" height="50" relative="1" as="geometry">
            <mxPoint x="400" y="325" as="sourcePoint" />
            <mxPoint x="380" y="550" as="targetPoint" />
          </mxGeometry>
        </mxCell>
        <mxCell id="mYhpT6WNRmOxAPuIhqAg-61" value="1" style="text;html=1;strokeColor=none;fillColor=none;align=center;verticalAlign=middle;whiteSpace=wrap;rounded=0;" vertex="1" parent="1">
          <mxGeometry x="174" y="370" width="30" height="30" as="geometry" />
        </mxCell>
        <mxCell id="mYhpT6WNRmOxAPuIhqAg-63" value="1" style="text;html=1;strokeColor=none;fillColor=none;align=center;verticalAlign=middle;whiteSpace=wrap;rounded=0;" vertex="1" parent="1">
          <mxGeometry x="229" y="360" width="30" height="30" as="geometry" />
        </mxCell>
        <mxCell id="mYhpT6WNRmOxAPuIhqAg-64" value="N" style="text;html=1;strokeColor=none;fillColor=none;align=center;verticalAlign=middle;whiteSpace=wrap;rounded=0;" vertex="1" parent="1">
          <mxGeometry x="410" y="280" width="30" height="30" as="geometry" />
        </mxCell>
        <mxCell id="mYhpT6WNRmOxAPuIhqAg-65" value="N" style="text;html=1;strokeColor=none;fillColor=none;align=center;verticalAlign=middle;whiteSpace=wrap;rounded=0;" vertex="1" parent="1">
          <mxGeometry x="204" y="270" width="30" height="30" as="geometry" />
        </mxCell>
        <mxCell id="mYhpT6WNRmOxAPuIhqAg-66" value="TEM" style="html=1;whiteSpace=wrap;aspect=fixed;shape=isoRectangle;" vertex="1" parent="1">
          <mxGeometry x="380.00000000000006" y="215" width="83.33" height="50" as="geometry" />
        </mxCell>
        <mxCell id="mYhpT6WNRmOxAPuIhqAg-67" value="" style="endArrow=none;html=1;rounded=0;entryX=0.072;entryY=0.58;entryDx=0;entryDy=0;entryPerimeter=0;exitX=1;exitY=0.5;exitDx=0;exitDy=0;" edge="1" parent="1" source="mYhpT6WNRmOxAPuIhqAg-43" target="mYhpT6WNRmOxAPuIhqAg-66">
          <mxGeometry width="50" height="50" relative="1" as="geometry">
            <mxPoint x="330" y="600" as="sourcePoint" />
            <mxPoint x="380" y="550" as="targetPoint" />
          </mxGeometry>
        </mxCell>
        <mxCell id="mYhpT6WNRmOxAPuIhqAg-68" value="" style="endArrow=none;html=1;rounded=0;entryX=0.981;entryY=0.523;entryDx=0;entryDy=0;entryPerimeter=0;exitX=0;exitY=0.5;exitDx=0;exitDy=0;" edge="1" parent="1" source="mYhpT6WNRmOxAPuIhqAg-44" target="mYhpT6WNRmOxAPuIhqAg-66">
          <mxGeometry width="50" height="50" relative="1" as="geometry">
            <mxPoint x="330" y="600" as="sourcePoint" />
            <mxPoint x="380" y="550" as="targetPoint" />
          </mxGeometry>
        </mxCell>
        <mxCell id="mYhpT6WNRmOxAPuIhqAg-69" value="1" style="text;html=1;strokeColor=none;fillColor=none;align=center;verticalAlign=middle;whiteSpace=wrap;rounded=0;" vertex="1" parent="1">
          <mxGeometry x="330" y="210" width="30" height="30" as="geometry" />
        </mxCell>
        <mxCell id="mYhpT6WNRmOxAPuIhqAg-70" value="N" style="text;html=1;strokeColor=none;fillColor=none;align=center;verticalAlign=middle;whiteSpace=wrap;rounded=0;" vertex="1" parent="1">
          <mxGeometry x="470" y="195" width="30" height="30" as="geometry" />
        </mxCell>
        <mxCell id="mYhpT6WNRmOxAPuIhqAg-71" value="&lt;u&gt;cd_setor&lt;/u&gt;" style="ellipse;whiteSpace=wrap;html=1;" vertex="1" parent="1">
          <mxGeometry x="579" y="110" width="100" height="50" as="geometry" />
        </mxCell>
        <mxCell id="mYhpT6WNRmOxAPuIhqAg-72" value="" style="endArrow=none;html=1;rounded=0;entryX=0.327;entryY=0.966;entryDx=0;entryDy=0;entryPerimeter=0;exitX=0.667;exitY=0;exitDx=0;exitDy=0;exitPerimeter=0;" edge="1" parent="1" source="mYhpT6WNRmOxAPuIhqAg-44" target="mYhpT6WNRmOxAPuIhqAg-71">
          <mxGeometry width="50" height="50" relative="1" as="geometry">
            <mxPoint x="330" y="600" as="sourcePoint" />
            <mxPoint x="380" y="550" as="targetPoint" />
          </mxGeometry>
        </mxCell>
        <mxCell id="mYhpT6WNRmOxAPuIhqAg-73" value="DS_LOCALIDADE" style="ellipse;whiteSpace=wrap;html=1;" vertex="1" parent="1">
          <mxGeometry x="684" y="145" width="120" height="50" as="geometry" />
        </mxCell>
        <mxCell id="mYhpT6WNRmOxAPuIhqAg-74" value="" style="endArrow=none;html=1;rounded=0;entryX=0;entryY=1;entryDx=0;entryDy=0;exitX=1;exitY=0.5;exitDx=0;exitDy=0;" edge="1" parent="1" source="mYhpT6WNRmOxAPuIhqAg-44" target="mYhpT6WNRmOxAPuIhqAg-73">
          <mxGeometry width="50" height="50" relative="1" as="geometry">
            <mxPoint x="330" y="600" as="sourcePoint" />
            <mxPoint x="380" y="550" as="targetPoint" />
          </mxGeometry>
        </mxCell>
        <mxCell id="mYhpT6WNRmOxAPuIhqAg-76" value="" style="endArrow=none;html=1;rounded=0;entryX=0.75;entryY=1;entryDx=0;entryDy=0;" edge="1" parent="1" target="mYhpT6WNRmOxAPuIhqAg-1">
          <mxGeometry width="50" height="50" relative="1" as="geometry">
            <mxPoint x="224" y="580" as="sourcePoint" />
            <mxPoint x="380" y="550" as="targetPoint" />
          </mxGeometry>
        </mxCell>
        <mxCell id="mYhpT6WNRmOxAPuIhqAg-77" value="" style="endArrow=none;html=1;rounded=0;" edge="1" parent="1" target="mYhpT6WNRmOxAPuIhqAg-35">
          <mxGeometry width="50" height="50" relative="1" as="geometry">
            <mxPoint x="370" y="690" as="sourcePoint" />
            <mxPoint x="380" y="550" as="targetPoint" />
          </mxGeometry>
        </mxCell>
        <mxCell id="mYhpT6WNRmOxAPuIhqAg-78" value="" style="endArrow=none;html=1;rounded=0;entryX=0;entryY=0.5;entryDx=0;entryDy=0;exitX=0.998;exitY=0.503;exitDx=0;exitDy=0;exitPerimeter=0;" edge="1" parent="1" source="mYhpT6WNRmOxAPuIhqAg-86" target="mYhpT6WNRmOxAPuIhqAg-4">
          <mxGeometry width="50" height="50" relative="1" as="geometry">
            <mxPoint x="480" y="780" as="sourcePoint" />
            <mxPoint x="380" y="550" as="targetPoint" />
          </mxGeometry>
        </mxCell>
        <mxCell id="mYhpT6WNRmOxAPuIhqAg-79" value="N" style="text;html=1;strokeColor=none;fillColor=none;align=center;verticalAlign=middle;whiteSpace=wrap;rounded=0;" vertex="1" parent="1">
          <mxGeometry x="170" y="620" width="30" height="30" as="geometry" />
        </mxCell>
        <mxCell id="mYhpT6WNRmOxAPuIhqAg-80" value="N" style="text;html=1;strokeColor=none;fillColor=none;align=center;verticalAlign=middle;whiteSpace=wrap;rounded=0;" vertex="1" parent="1">
          <mxGeometry x="389" y="750" width="30" height="30" as="geometry" />
        </mxCell>
        <mxCell id="mYhpT6WNRmOxAPuIhqAg-81" value="1" style="text;html=1;strokeColor=none;fillColor=none;align=center;verticalAlign=middle;whiteSpace=wrap;rounded=0;" vertex="1" parent="1">
          <mxGeometry x="174" y="560" width="30" height="30" as="geometry" />
        </mxCell>
        <mxCell id="mYhpT6WNRmOxAPuIhqAg-82" value="&lt;u&gt;cd_itsolicitacao_os&lt;/u&gt;" style="ellipse;whiteSpace=wrap;html=1;" vertex="1" parent="1">
          <mxGeometry x="13.999999999999972" y="840" width="126.67" height="50" as="geometry" />
        </mxCell>
        <mxCell id="mYhpT6WNRmOxAPuIhqAg-83" value="ITSOLICITACAO_OS" style="rounded=0;whiteSpace=wrap;html=1;" vertex="1" parent="1">
          <mxGeometry x="146.67000000000002" y="756.7" width="130" height="60" as="geometry" />
        </mxCell>
        <mxCell id="mYhpT6WNRmOxAPuIhqAg-84" value="TEM" style="html=1;whiteSpace=wrap;aspect=fixed;shape=isoRectangle;" vertex="1" parent="1">
          <mxGeometry x="180.00000000000003" y="580" width="83.33" height="50" as="geometry" />
        </mxCell>
        <mxCell id="mYhpT6WNRmOxAPuIhqAg-85" value="FAZ" style="html=1;whiteSpace=wrap;aspect=fixed;shape=isoRectangle;" vertex="1" parent="1">
          <mxGeometry x="300" y="670" width="89" height="53.4" as="geometry" />
        </mxCell>
        <mxCell id="mYhpT6WNRmOxAPuIhqAg-86" value="Ã UM" style="html=1;whiteSpace=wrap;aspect=fixed;shape=isoRectangle;" vertex="1" parent="1">
          <mxGeometry x="420" y="760" width="89" height="53.4" as="geometry" />
        </mxCell>
        <mxCell id="mYhpT6WNRmOxAPuIhqAg-87" value="" style="endArrow=none;html=1;rounded=0;entryX=0.432;entryY=1.023;entryDx=0;entryDy=0;entryPerimeter=0;exitX=0.5;exitY=0;exitDx=0;exitDy=0;" edge="1" parent="1" source="mYhpT6WNRmOxAPuIhqAg-83" target="mYhpT6WNRmOxAPuIhqAg-84">
          <mxGeometry width="50" height="50" relative="1" as="geometry">
            <mxPoint x="330" y="890" as="sourcePoint" />
            <mxPoint x="380" y="840" as="targetPoint" />
          </mxGeometry>
        </mxCell>
        <mxCell id="mYhpT6WNRmOxAPuIhqAg-88" value="" style="endArrow=none;html=1;rounded=0;entryX=-0.013;entryY=0.61;entryDx=0;entryDy=0;entryPerimeter=0;exitX=1;exitY=0;exitDx=0;exitDy=0;" edge="1" parent="1" source="mYhpT6WNRmOxAPuIhqAg-83" target="mYhpT6WNRmOxAPuIhqAg-85">
          <mxGeometry width="50" height="50" relative="1" as="geometry">
            <mxPoint x="330" y="890" as="sourcePoint" />
            <mxPoint x="380" y="840" as="targetPoint" />
          </mxGeometry>
        </mxCell>
        <mxCell id="mYhpT6WNRmOxAPuIhqAg-89" value="" style="endArrow=none;html=1;rounded=0;entryX=0.019;entryY=0.53;entryDx=0;entryDy=0;entryPerimeter=0;" edge="1" parent="1" source="mYhpT6WNRmOxAPuIhqAg-83" target="mYhpT6WNRmOxAPuIhqAg-86">
          <mxGeometry width="50" height="50" relative="1" as="geometry">
            <mxPoint x="330" y="890" as="sourcePoint" />
            <mxPoint x="380" y="840" as="targetPoint" />
          </mxGeometry>
        </mxCell>
        <mxCell id="mYhpT6WNRmOxAPuIhqAg-90" value="1" style="text;html=1;strokeColor=none;fillColor=none;align=center;verticalAlign=middle;whiteSpace=wrap;rounded=0;" vertex="1" parent="1">
          <mxGeometry x="380" y="650" width="30" height="30" as="geometry" />
        </mxCell>
        <mxCell id="mYhpT6WNRmOxAPuIhqAg-91" value="N" style="text;html=1;strokeColor=none;fillColor=none;align=center;verticalAlign=middle;whiteSpace=wrap;rounded=0;" vertex="1" parent="1">
          <mxGeometry x="270" y="680" width="30" height="30" as="geometry" />
        </mxCell>
        <mxCell id="mYhpT6WNRmOxAPuIhqAg-92" value="1" style="text;html=1;strokeColor=none;fillColor=none;align=center;verticalAlign=middle;whiteSpace=wrap;rounded=0;" vertex="1" parent="1">
          <mxGeometry x="500" y="750" width="30" height="30" as="geometry" />
        </mxCell>
        <mxCell id="mYhpT6WNRmOxAPuIhqAg-95" value="" style="endArrow=none;html=1;rounded=0;exitX=0;exitY=1;exitDx=0;exitDy=0;" edge="1" parent="1" source="mYhpT6WNRmOxAPuIhqAg-83" target="mYhpT6WNRmOxAPuIhqAg-82">
          <mxGeometry width="50" height="50" relative="1" as="geometry">
            <mxPoint x="330" y="750" as="sourcePoint" />
            <mxPoint x="380" y="700" as="targetPoint" />
          </mxGeometry>
        </mxCell>
        <mxCell id="mYhpT6WNRmOxAPuIhqAg-96" value="&lt;u&gt;cd_os&lt;/u&gt;" style="ellipse;whiteSpace=wrap;html=1;" vertex="1" parent="1">
          <mxGeometry x="14" y="766.7" width="60" height="50" as="geometry" />
        </mxCell>
        <mxCell id="mYhpT6WNRmOxAPuIhqAg-97" value="" style="endArrow=none;html=1;rounded=0;exitX=1;exitY=0.5;exitDx=0;exitDy=0;" edge="1" parent="1" source="mYhpT6WNRmOxAPuIhqAg-96">
          <mxGeometry width="50" height="50" relative="1" as="geometry">
            <mxPoint x="330" y="750" as="sourcePoint" />
            <mxPoint x="150" y="790" as="targetPoint" />
          </mxGeometry>
        </mxCell>
        <mxCell id="mYhpT6WNRmOxAPuIhqAg-98" value="&lt;u&gt;cd_func&lt;/u&gt;" style="ellipse;whiteSpace=wrap;html=1;" vertex="1" parent="1">
          <mxGeometry x="9" y="710" width="60" height="50" as="geometry" />
        </mxCell>
        <mxCell id="mYhpT6WNRmOxAPuIhqAg-99" value="" style="endArrow=none;html=1;rounded=0;exitX=1;exitY=0.5;exitDx=0;exitDy=0;entryX=0;entryY=0;entryDx=0;entryDy=0;" edge="1" parent="1" source="mYhpT6WNRmOxAPuIhqAg-98" target="mYhpT6WNRmOxAPuIhqAg-83">
          <mxGeometry width="50" height="50" relative="1" as="geometry">
            <mxPoint x="330" y="750" as="sourcePoint" />
            <mxPoint x="380" y="700" as="targetPoint" />
          </mxGeometry>
        </mxCell>
        <mxCell id="mYhpT6WNRmOxAPuIhqAg-100" value="&lt;u&gt;cd_servico&lt;/u&gt;" style="ellipse;whiteSpace=wrap;html=1;" vertex="1" parent="1">
          <mxGeometry x="46.67" y="900" width="100" height="50" as="geometry" />
        </mxCell>
        <mxCell id="mYhpT6WNRmOxAPuIhqAg-101" value="" style="endArrow=none;html=1;rounded=0;exitX=1;exitY=0;exitDx=0;exitDy=0;entryX=0.25;entryY=1;entryDx=0;entryDy=0;" edge="1" parent="1" source="mYhpT6WNRmOxAPuIhqAg-100" target="mYhpT6WNRmOxAPuIhqAg-83">
          <mxGeometry width="50" height="50" relative="1" as="geometry">
            <mxPoint x="330" y="750" as="sourcePoint" />
            <mxPoint x="380" y="700" as="targetPoint" />
          </mxGeometry>
        </mxCell>
        <mxCell id="mYhpT6WNRmOxAPuIhqAg-102" value="hr_iniciol" style="ellipse;whiteSpace=wrap;html=1;" vertex="1" parent="1">
          <mxGeometry x="100" y="960" width="90" height="50" as="geometry" />
        </mxCell>
        <mxCell id="mYhpT6WNRmOxAPuIhqAg-103" value="hr_final" style="ellipse;whiteSpace=wrap;html=1;" vertex="1" parent="1">
          <mxGeometry x="150" y="1010" width="90" height="50" as="geometry" />
        </mxCell>
        <mxCell id="mYhpT6WNRmOxAPuIhqAg-104" style="edgeStyle=orthogonalEdgeStyle;rounded=0;orthogonalLoop=1;jettySize=auto;html=1;exitX=0.5;exitY=1;exitDx=0;exitDy=0;" edge="1" parent="1" source="mYhpT6WNRmOxAPuIhqAg-102" target="mYhpT6WNRmOxAPuIhqAg-102">
          <mxGeometry relative="1" as="geometry" />
        </mxCell>
        <mxCell id="mYhpT6WNRmOxAPuIhqAg-105" value="" style="endArrow=none;html=1;rounded=0;entryX=0.5;entryY=1;entryDx=0;entryDy=0;exitX=0.5;exitY=0;exitDx=0;exitDy=0;" edge="1" parent="1" source="mYhpT6WNRmOxAPuIhqAg-102" target="mYhpT6WNRmOxAPuIhqAg-83">
          <mxGeometry width="50" height="50" relative="1" as="geometry">
            <mxPoint x="330" y="750" as="sourcePoint" />
            <mxPoint x="380" y="700" as="targetPoint" />
          </mxGeometry>
        </mxCell>
        <mxCell id="mYhpT6WNRmOxAPuIhqAg-106" value="" style="endArrow=none;html=1;rounded=0;exitX=0.75;exitY=1;exitDx=0;exitDy=0;entryX=0.67;entryY=-0.006;entryDx=0;entryDy=0;entryPerimeter=0;" edge="1" parent="1" source="mYhpT6WNRmOxAPuIhqAg-83" target="mYhpT6WNRmOxAPuIhqAg-103">
          <mxGeometry width="50" height="50" relative="1" as="geometry">
            <mxPoint x="330" y="750" as="sourcePoint" />
            <mxPoint x="200" y="1020" as="targetPoint" />
          </mxGeometry>
        </mxCell>
        <mxCell id="mYhpT6WNRmOxAPuIhqAg-107" value="vl_tempo_gasto_min" style="ellipse;whiteSpace=wrap;html=1;" vertex="1" parent="1">
          <mxGeometry x="454" y="830" width="126" height="50" as="geometry" />
        </mxCell>
        <mxCell id="mYhpT6WNRmOxAPuIhqAg-108" value="" style="endArrow=none;html=1;rounded=0;exitX=1;exitY=0.75;exitDx=0;exitDy=0;entryX=0;entryY=0.5;entryDx=0;entryDy=0;" edge="1" parent="1" source="mYhpT6WNRmOxAPuIhqAg-83" target="mYhpT6WNRmOxAPuIhqAg-107">
          <mxGeometry width="50" height="50" relative="1" as="geometry">
            <mxPoint x="330" y="750" as="sourcePoint" />
            <mxPoint x="380" y="700" as="targetPoint" />
          </mxGeometry>
        </mxCell>
        <mxCell id="mYhpT6WNRmOxAPuIhqAg-109" value="vl_tempo_gasto" style="ellipse;whiteSpace=wrap;html=1;" vertex="1" parent="1">
          <mxGeometry x="398" y="880" width="100" height="50" as="geometry" />
        </mxCell>
        <mxCell id="mYhpT6WNRmOxAPuIhqAg-110" value="" style="endArrow=none;html=1;rounded=0;" edge="1" parent="1" source="mYhpT6WNRmOxAPuIhqAg-83" target="mYhpT6WNRmOxAPuIhqAg-109">
          <mxGeometry width="50" height="50" relative="1" as="geometry">
            <mxPoint x="330" y="750" as="sourcePoint" />
            <mxPoint x="390" y="700" as="targetPoint" />
          </mxGeometry>
        </mxCell>
        <mxCell id="mYhpT6WNRmOxAPuIhqAg-111" value="ds_servico" style="ellipse;whiteSpace=wrap;html=1;" vertex="1" parent="1">
          <mxGeometry x="240" y="990" width="100" height="50" as="geometry" />
        </mxCell>
        <mxCell id="mYhpT6WNRmOxAPuIhqAg-112" value="" style="endArrow=none;html=1;rounded=0;entryX=0.5;entryY=0;entryDx=0;entryDy=0;" edge="1" parent="1" target="mYhpT6WNRmOxAPuIhqAg-111">
          <mxGeometry width="50" height="50" relative="1" as="geometry">
            <mxPoint x="260" y="820" as="sourcePoint" />
            <mxPoint x="380" y="700" as="targetPoint" />
          </mxGeometry>
        </mxCell>
        <mxCell id="mYhpT6WNRmOxAPuIhqAg-114" value="&lt;font style=&quot;font-size: 23px;&quot;&gt;DER - TABELAS SOUL MANUTENÃÃO&lt;/font&gt;" style="text;html=1;strokeColor=none;fillColor=none;align=center;verticalAlign=middle;whiteSpace=wrap;rounded=0;" vertex="1" parent="1">
          <mxGeometry x="10" y="20" width="810" height="60" as="geometry" />
        </mxCell>
      </root>
    </mxGraphModel>
  </diagram>
</mxfile>
